<?xml version="1.0" encoding="utf-8"?>
<!-- Generator: Adobe Illustrator 22.0.1, SVG Export Plug-In . SVG Version: 6.00 Build 0)  -->
<!DOCTYPE svg PUBLIC "-//W3C//DTD SVG 1.1//EN" "http://www.w3.org/Graphics/SVG/1.1/DTD/svg11.dtd">
<svg version="1.1" id="Layer_1" xmlns="http://www.w3.org/2000/svg" xmlns:xlink="http://www.w3.org/1999/xlink" x="0px" y="0px"
	 viewBox="0 0 360 360" style="enable-background:new 0 0 360 360;" xml:space="preserve">
<style type="text/css">
	.st0{fill:#FFFFFF;}
</style>
<g>
	<path class="st0" d="M259.4,163.3c-12.7-8.3-28.8-6.3-40.2,5.1c-7.1,7.1-14.1,14.1-21.2,21.2l22.7,22.4h0c0,0,0,0,0,0
		c1.3,1.3,2.7,2.4,4.2,3.4c4.1,2.7,8.6,4.4,13.1,5c2.8,0.4,5.7,0.3,8.8-0.1c12.5-1.6,23.1-11.6,25.9-23.9
		C275.6,183.4,270.5,170.5,259.4,163.3z"/>
	<path class="st0" d="M145.5,138.2c3.8-1.4,6.2-4.6,6.1-8.2c0-5.9-6.4-9.5-12-7c-5,2.3-6.7,8.4-3.4,12.5
		C138.4,138.3,142.1,139.4,145.5,138.2z"/>
	<path class="st0" d="M180.1,22.5c-86.9,0-157.3,70.4-157.3,157.3s70.4,157.3,157.3,157.3s157.3-70.4,157.3-157.3
		S266.9,22.5,180.1,22.5z M202.6,229.9l-14.9-15c-2.5-2.5-5-5-7.5-7.4c-7.3,7.3-14.7,14.7-22,22c-13.9,13.9-31,19.3-50.1,16
		c-36.6-6.3-56.2-44.1-42.8-77c5.3-13,14.5-22.6,25.5-28.6l-0.6-1.3v0v0l-0.8-1.9c-4.8-0.9-9.6-1.7-14.6-2.6c3-2.1,5.8-4,8.5-5.9
		c4.4-3.1,8.8-6.2,13.1-9.3c0.8-0.6,1.5-0.8,2.5-0.6c5.1,0.9,10.3,1.8,15.4,2.6c0.5,0.1,1.1,0.1,1.5-0.1c7.7-3.7,16-5.3,24.4-6.3
		c9.9-1.2,19.8-1.7,29.7-0.8c1.6,0.1,3.1,0.4,4.6,0.8c1.6,0.4,1.9,1,1.1,2.5c-0.6,1.3-1.4,2.7-2.2,3.9c-9,12.6-19.6,23.6-32.4,32.4
		c-2.4,1.6-5.1,2.7-7.7,4.1c-0.6,0.3-1.2,0.7-1.5,1.3c-2.9,4.6-5.7,9.2-8.6,13.8c-0.3,0.5-0.9,0.9-1.4,1.1c-8.5,2.2-17,4.3-25.5,6.4
		c-0.1,0-0.2,0-0.6,0c2.5-4.2,5-8.3,7.5-12.5l-0.9-1.9h0c0,0,0,0,0,0l-1.1-2.4c-7.4,4.6-12.9,12.2-14.5,21
		c-2.4,13.2,3.6,26.2,15.2,32.8c12.5,7.2,27.6,4.9,38.5-5.9c7.2-7.2,14.5-14.3,21.7-21.5c-5.4-5.4-10.9-10.8-16.3-16.2l18-18
		c5.4,5.4,10.9,10.9,16.3,16.3c7.4-7.4,14.9-14.8,22.3-22.2c11.2-11.1,24.7-16.3,42-16.6c2.4,0.3,6.5,0.5,10.4,1.4
		c34.9,7.7,53.8,45.2,39.4,77.9C278.2,248.5,230.6,257.7,202.6,229.9z"/>
</g>
</svg>
